<mxfile host="65bd71144e">
    <diagram id="j706QnFWbmHLbnGnobgl" name="第 1 页">
        <mxGraphModel dx="-870" dy="-359" grid="1" gridSize="10" guides="0" tooltips="1" connect="1" arrows="1" fold="1" page="1" pageScale="1" pageWidth="1169" pageHeight="827" background="#ffffff" math="0" shadow="1">
            <root>
                <mxCell id="0"/>
                <object label="Main" id="1">
                    <mxCell style="locked=1;" parent="0"/>
                </object>
                <mxCell id="315" value="开始" style="ellipse;whiteSpace=wrap;html=1;sketch=0;fillColor=none;gradientDirection=west;fontColor=#000000;strokeColor=default;fillStyle=auto;gradientColor=none;labelBackgroundColor=none;" parent="1" vertex="1">
                    <mxGeometry x="2335" y="1360" width="70" height="30" as="geometry"/>
                </mxCell>
                <mxCell id="353" style="edgeStyle=none;html=1;exitX=0.5;exitY=1;exitDx=0;exitDy=0;exitPerimeter=0;labelBackgroundColor=none;fontColor=#000000;" parent="1" source="333" target="343" edge="1">
                    <mxGeometry relative="1" as="geometry"/>
                </mxCell>
                <mxCell id="333" value="ID = 11&lt;br&gt;登录&lt;br&gt;@ID&lt;br&gt;@Passwd;" style="shape=card;whiteSpace=wrap;html=1;sketch=0;fillStyle=auto;fillColor=none;gradientColor=none;gradientDirection=west;labelBackgroundColor=none;fontColor=#000000;" parent="1" vertex="1">
                    <mxGeometry x="2300" y="1420" width="70" height="60" as="geometry"/>
                </mxCell>
                <mxCell id="341" value="结束" style="ellipse;whiteSpace=wrap;html=1;sketch=0;fillColor=none;gradientDirection=west;fontColor=#000000;strokeColor=#000000;fillStyle=auto;gradientColor=none;labelBackgroundColor=none;" parent="1" vertex="1">
                    <mxGeometry x="2410" y="1630" width="80" height="30" as="geometry"/>
                </mxCell>
                <mxCell id="349" style="edgeStyle=none;html=1;exitX=0.5;exitY=1;exitDx=0;exitDy=0;exitPerimeter=0;labelBackgroundColor=none;fontColor=#000000;" parent="1" source="342" edge="1">
                    <mxGeometry relative="1" as="geometry">
                        <mxPoint x="2450" y="1630" as="targetPoint"/>
                        <Array as="points">
                            <mxPoint x="2410" y="1510"/>
                            <mxPoint x="2450" y="1510"/>
                        </Array>
                    </mxGeometry>
                </mxCell>
                <mxCell id="342" value="ID = 1&lt;br&gt;退出;" style="shape=card;whiteSpace=wrap;html=1;sketch=0;fillStyle=auto;fillColor=none;gradientColor=none;gradientDirection=west;labelBackgroundColor=none;fontColor=#000000;" parent="1" vertex="1">
                    <mxGeometry x="2380" y="1420" width="60" height="60" as="geometry"/>
                </mxCell>
                <mxCell id="351" style="edgeStyle=none;html=1;exitX=0;exitY=0.5;exitDx=0;exitDy=0;labelBackgroundColor=none;fontColor=#000000;" parent="1" source="343" edge="1">
                    <mxGeometry relative="1" as="geometry">
                        <mxPoint x="2370" y="1400" as="targetPoint"/>
                        <Array as="points">
                            <mxPoint x="2290" y="1515"/>
                            <mxPoint x="2290" y="1400"/>
                        </Array>
                        <mxPoint x="2280" y="1550" as="sourcePoint"/>
                    </mxGeometry>
                </mxCell>
                <mxCell id="343" value="登录状态" style="rhombus;whiteSpace=wrap;html=1;sketch=0;fillStyle=auto;fillColor=none;gradientColor=none;gradientDirection=west;labelBackgroundColor=none;fontColor=#000000;" parent="1" vertex="1">
                    <mxGeometry x="2300" y="1490" width="74" height="50" as="geometry"/>
                </mxCell>
                <mxCell id="344" value="" style="endArrow=none;html=1;labelBackgroundColor=none;fontColor=#000000;" parent="1" edge="1">
                    <mxGeometry width="50" height="50" relative="1" as="geometry">
                        <mxPoint x="2330" y="1410" as="sourcePoint"/>
                        <mxPoint x="2410" y="1410" as="targetPoint"/>
                    </mxGeometry>
                </mxCell>
                <mxCell id="346" value="" style="endArrow=none;html=1;entryX=0.5;entryY=1;entryDx=0;entryDy=0;labelBackgroundColor=none;fontColor=#000000;" parent="1" target="315" edge="1">
                    <mxGeometry width="50" height="50" relative="1" as="geometry">
                        <mxPoint x="2370" y="1410" as="sourcePoint"/>
                        <mxPoint x="2460" y="1420" as="targetPoint"/>
                    </mxGeometry>
                </mxCell>
                <mxCell id="347" value="" style="endArrow=classic;html=1;labelBackgroundColor=none;fontColor=#000000;" parent="1" edge="1">
                    <mxGeometry width="50" height="50" relative="1" as="geometry">
                        <mxPoint x="2330" y="1410" as="sourcePoint"/>
                        <mxPoint x="2330" y="1420" as="targetPoint"/>
                    </mxGeometry>
                </mxCell>
                <mxCell id="348" value="" style="endArrow=classic;html=1;labelBackgroundColor=none;fontColor=#000000;" parent="1" edge="1">
                    <mxGeometry width="50" height="50" relative="1" as="geometry">
                        <mxPoint x="2410" y="1410" as="sourcePoint"/>
                        <mxPoint x="2410" y="1420" as="targetPoint"/>
                    </mxGeometry>
                </mxCell>
                <mxCell id="352" value="False" style="text;html=1;align=center;verticalAlign=middle;resizable=0;points=[];autosize=1;strokeColor=none;fillColor=none;labelBackgroundColor=none;fontColor=#000000;" parent="1" vertex="1">
                    <mxGeometry x="2270" y="1510" width="40" height="20" as="geometry"/>
                </mxCell>
                <mxCell id="356" value="管理员&lt;br&gt;OP = 1" style="rounded=0;whiteSpace=wrap;html=1;labelBackgroundColor=none;fontColor=#000000;fillColor=none;" parent="1" vertex="1">
                    <mxGeometry x="2270" y="1560" width="50" height="50" as="geometry"/>
                </mxCell>
                <mxCell id="357" value="普通用户&lt;br&gt;OP = 1" style="rounded=0;whiteSpace=wrap;html=1;labelBackgroundColor=none;fontColor=#000000;fillColor=none;" parent="1" vertex="1">
                    <mxGeometry x="2330" y="1560" width="50" height="50" as="geometry"/>
                </mxCell>
                <mxCell id="362" value="" style="endArrow=none;html=1;labelBackgroundColor=none;fontColor=#000000;" parent="1" edge="1">
                    <mxGeometry width="50" height="50" relative="1" as="geometry">
                        <mxPoint x="2240" y="1550" as="sourcePoint"/>
                        <mxPoint x="2420" y="1550" as="targetPoint"/>
                    </mxGeometry>
                </mxCell>
                <mxCell id="365" value="" style="endArrow=classic;html=1;labelBackgroundColor=none;fontColor=#000000;" parent="1" edge="1">
                    <mxGeometry width="50" height="50" relative="1" as="geometry">
                        <mxPoint x="2241" y="1550" as="sourcePoint"/>
                        <mxPoint x="2241" y="1560" as="targetPoint"/>
                    </mxGeometry>
                </mxCell>
                <mxCell id="367" value="" style="endArrow=classic;html=1;labelBackgroundColor=none;fontColor=#000000;" parent="1" edge="1">
                    <mxGeometry width="50" height="50" relative="1" as="geometry">
                        <mxPoint x="2293" y="1550" as="sourcePoint"/>
                        <mxPoint x="2293" y="1560" as="targetPoint"/>
                    </mxGeometry>
                </mxCell>
                <mxCell id="368" value="" style="endArrow=classic;html=1;labelBackgroundColor=none;fontColor=#000000;" parent="1" edge="1">
                    <mxGeometry width="50" height="50" relative="1" as="geometry">
                        <mxPoint x="2352" y="1550" as="sourcePoint"/>
                        <mxPoint x="2352" y="1560" as="targetPoint"/>
                    </mxGeometry>
                </mxCell>
                <mxCell id="369" value="" style="endArrow=classic;html=1;labelBackgroundColor=none;fontColor=#000000;" parent="1" edge="1">
                    <mxGeometry width="50" height="50" relative="1" as="geometry">
                        <mxPoint x="2420" y="1550" as="sourcePoint"/>
                        <mxPoint x="2420" y="1560" as="targetPoint"/>
                    </mxGeometry>
                </mxCell>
                <mxCell id="372" value="True" style="text;html=1;align=center;verticalAlign=middle;resizable=0;points=[];autosize=1;strokeColor=none;fillColor=none;labelBackgroundColor=none;fontColor=#000000;" parent="1" vertex="1">
                    <mxGeometry x="2340" y="1530" width="40" height="20" as="geometry"/>
                </mxCell>
                <mxCell id="373" value="" style="endArrow=none;html=1;labelBackgroundColor=none;fontColor=#000000;" parent="1" edge="1">
                    <mxGeometry width="50" height="50" relative="1" as="geometry">
                        <mxPoint x="2355" y="1620" as="sourcePoint"/>
                        <mxPoint x="2300" y="1400" as="targetPoint"/>
                        <Array as="points">
                            <mxPoint x="2195" y="1620"/>
                            <mxPoint x="2195" y="1400"/>
                        </Array>
                    </mxGeometry>
                </mxCell>
                <mxCell id="375" value="" style="endArrow=none;html=1;entryX=0.5;entryY=1;entryDx=0;entryDy=0;entryPerimeter=0;labelBackgroundColor=none;fontColor=#000000;" parent="1" target="381" edge="1">
                    <mxGeometry width="50" height="50" relative="1" as="geometry">
                        <mxPoint x="2450" y="1620" as="sourcePoint"/>
                        <mxPoint x="2410" y="1650" as="targetPoint"/>
                        <Array as="points">
                            <mxPoint x="2415" y="1620"/>
                        </Array>
                    </mxGeometry>
                </mxCell>
                <mxCell id="376" value="" style="endArrow=none;html=1;entryX=0.5;entryY=1;entryDx=0;entryDy=0;labelBackgroundColor=none;fontColor=#000000;" parent="1" target="343" edge="1">
                    <mxGeometry width="50" height="50" relative="1" as="geometry">
                        <mxPoint x="2337" y="1550" as="sourcePoint"/>
                        <mxPoint x="2329" y="1560" as="targetPoint"/>
                    </mxGeometry>
                </mxCell>
                <mxCell id="377" value="" style="endArrow=none;html=1;labelBackgroundColor=none;fontColor=#000000;" parent="1" edge="1">
                    <mxGeometry width="50" height="50" relative="1" as="geometry">
                        <mxPoint x="2355" y="1620" as="sourcePoint"/>
                        <mxPoint x="2355" y="1610" as="targetPoint"/>
                    </mxGeometry>
                </mxCell>
                <mxCell id="378" value="" style="endArrow=none;html=1;entryX=0.5;entryY=1;entryDx=0;entryDy=0;labelBackgroundColor=none;fontColor=#000000;" parent="1" target="356" edge="1">
                    <mxGeometry width="50" height="50" relative="1" as="geometry">
                        <mxPoint x="2295" y="1620" as="sourcePoint"/>
                        <mxPoint x="2090" y="1610" as="targetPoint"/>
                    </mxGeometry>
                </mxCell>
                <mxCell id="379" value="" style="endArrow=none;html=1;entryX=0.5;entryY=1;entryDx=0;entryDy=0;labelBackgroundColor=none;fontColor=#000000;" parent="1" target="382" edge="1">
                    <mxGeometry width="50" height="50" relative="1" as="geometry">
                        <mxPoint x="2235" y="1620" as="sourcePoint"/>
                        <mxPoint x="2231" y="1650" as="targetPoint"/>
                    </mxGeometry>
                </mxCell>
                <mxCell id="381" value="ID = 1&lt;br&gt;退出;" style="shape=card;whiteSpace=wrap;html=1;sketch=0;fillStyle=auto;fillColor=none;gradientColor=none;gradientDirection=west;labelBackgroundColor=none;fontColor=#000000;" parent="1" vertex="1">
                    <mxGeometry x="2390" y="1560" width="50" height="50" as="geometry"/>
                </mxCell>
                <mxCell id="382" value="ROOT&lt;br&gt;OP = 1" style="rounded=0;whiteSpace=wrap;html=1;labelBackgroundColor=none;fontColor=#000000;fillColor=none;" parent="1" vertex="1">
                    <mxGeometry x="2210" y="1560" width="50" height="50" as="geometry"/>
                </mxCell>
                <mxCell id="514" value="" style="edgeStyle=none;html=1;strokeColor=default;fontSize=12;fillColor=none;fontColor=#ffffff;sketch=0;gradientDirection=west;fillStyle=auto;gradientColor=none;exitX=0.552;exitY=1.012;exitDx=0;exitDy=0;exitPerimeter=0;rounded=0;" parent="1" edge="1">
                    <mxGeometry relative="1" as="geometry">
                        <mxPoint x="2848.64" y="1480.96" as="sourcePoint"/>
                        <mxPoint x="2849" y="1490" as="targetPoint"/>
                        <Array as="points"/>
                    </mxGeometry>
                </mxCell>
                <mxCell id="530" value="注： CID为MAP&amp;lt;string,int&amp;gt;中string的value值&lt;br&gt;OP是当前用户的权限，0为管理员权限，1为管理员权限，2为普通用户权限&lt;br&gt;OP并非代表string的权限，而根据上文确定当前指令是否具有权限执行" style="text;html=1;align=center;verticalAlign=middle;resizable=0;points=[];autosize=1;strokeColor=none;fillColor=none;" parent="1" vertex="1">
                    <mxGeometry x="2140" y="1280" width="410" height="50" as="geometry"/>
                </mxCell>
                <object label="ROOT" id="35">
                    <mxCell style="locked=1;" parent="0"/>
                </object>
                <mxCell id="272" value="结束" style="ellipse;whiteSpace=wrap;html=1;fillColor=none;strokeColor=default;fontColor=#000000;rounded=0;gradientDirection=west;sketch=0;fillStyle=auto;gradientColor=none;" parent="35" vertex="1">
                    <mxGeometry x="2820" y="1490" width="60" height="20" as="geometry"/>
                </mxCell>
                <mxCell id="274" value="" style="endArrow=none;html=1;strokeColor=default;fontSize=12;fillColor=none;fontColor=#ffffff;sketch=0;gradientDirection=west;fillStyle=auto;gradientColor=none;rounded=0;" parent="35" edge="1">
                    <mxGeometry width="50" height="50" relative="1" as="geometry">
                        <mxPoint x="2680" y="1390" as="sourcePoint"/>
                        <mxPoint x="2850" y="1390" as="targetPoint"/>
                    </mxGeometry>
                </mxCell>
                <mxCell id="275" value="" style="endArrow=classic;html=1;strokeColor=default;fontSize=12;fillColor=none;fontColor=#ffffff;sketch=0;gradientDirection=west;fillStyle=auto;gradientColor=none;rounded=0;" parent="35" edge="1">
                    <mxGeometry width="50" height="50" relative="1" as="geometry">
                        <mxPoint x="2610" y="1390" as="sourcePoint"/>
                        <mxPoint x="2610" y="1400" as="targetPoint"/>
                    </mxGeometry>
                </mxCell>
                <mxCell id="276" value="" style="endArrow=classic;html=1;strokeColor=default;fontSize=12;fillColor=none;fontColor=#ffffff;sketch=0;gradientDirection=west;fillStyle=auto;gradientColor=none;rounded=0;" parent="35" edge="1">
                    <mxGeometry width="50" height="50" relative="1" as="geometry">
                        <mxPoint x="2771" y="1390" as="sourcePoint"/>
                        <mxPoint x="2771" y="1400" as="targetPoint"/>
                    </mxGeometry>
                </mxCell>
                <mxCell id="277" value="" style="endArrow=classic;html=1;strokeColor=default;fontSize=12;fillColor=none;fontColor=#ffffff;sketch=0;gradientDirection=west;fillStyle=auto;gradientColor=none;rounded=0;" parent="35" edge="1">
                    <mxGeometry width="50" height="50" relative="1" as="geometry">
                        <mxPoint x="2690" y="1390" as="sourcePoint"/>
                        <mxPoint x="2690" y="1400" as="targetPoint"/>
                    </mxGeometry>
                </mxCell>
                <mxCell id="278" value="" style="endArrow=none;html=1;entryX=0.5;entryY=1;entryDx=0;entryDy=0;strokeColor=default;fontSize=12;fillColor=none;fontColor=#ffffff;sketch=0;gradientDirection=west;fillStyle=auto;gradientColor=none;rounded=0;" parent="35" target="280" edge="1">
                    <mxGeometry width="50" height="50" relative="1" as="geometry">
                        <mxPoint x="2730" y="1390" as="sourcePoint"/>
                        <mxPoint x="2530" y="1450" as="targetPoint"/>
                    </mxGeometry>
                </mxCell>
                <mxCell id="280" value="&lt;font color=&quot;#000000&quot;&gt;Root用户&lt;br&gt;OP = 0&lt;/font&gt;" style="rounded=0;whiteSpace=wrap;html=1;fillColor=none;fontColor=#ffffff;strokeColor=default;sketch=0;gradientDirection=west;fillStyle=auto;gradientColor=none;" parent="35" vertex="1">
                    <mxGeometry x="2690" y="1340" width="80" height="40" as="geometry"/>
                </mxCell>
                <mxCell id="385" value="&lt;span&gt;ID = 13&lt;br&gt;创建&lt;/span&gt;&lt;br&gt;&lt;span&gt;管理员&lt;/span&gt;&lt;br&gt;&lt;span&gt;@ID&lt;/span&gt;&lt;br&gt;&lt;span&gt;@Passwd;&lt;/span&gt;" style="shape=card;whiteSpace=wrap;html=1;sketch=0;fillStyle=auto;fillColor=none;gradientColor=none;gradientDirection=west;strokeColor=default;fontColor=#000000;rounded=0;" parent="35" vertex="1">
                    <mxGeometry x="2650" y="1400" width="70" height="80" as="geometry"/>
                </mxCell>
                <mxCell id="387" value="&lt;span&gt;ID = 12&lt;br&gt;删除&lt;/span&gt;&lt;br&gt;&lt;span&gt;管理员&lt;/span&gt;&lt;br&gt;&lt;span&gt;@ID;&lt;/span&gt;" style="shape=card;whiteSpace=wrap;html=1;sketch=0;fillStyle=auto;fillColor=none;gradientColor=none;gradientDirection=west;strokeColor=default;fontColor=#000000;rounded=0;" parent="35" vertex="1">
                    <mxGeometry x="2570" y="1400" width="70" height="80" as="geometry"/>
                </mxCell>
                <mxCell id="390" value="&lt;font&gt;ID = 1&lt;br&gt;退出;&lt;/font&gt;" style="shape=card;whiteSpace=wrap;html=1;sketch=0;fillStyle=auto;fillColor=none;gradientColor=none;gradientDirection=west;strokeColor=default;fontColor=#000000;rounded=0;" parent="35" vertex="1">
                    <mxGeometry x="2810" y="1400" width="70" height="80" as="geometry"/>
                </mxCell>
                <mxCell id="391" value="管理员用户&lt;br&gt;OP&amp;nbsp; = 1" style="rounded=0;whiteSpace=wrap;html=1;gradientDirection=west;fillColor=none;fontColor=#000000;strokeColor=default;sketch=0;fillStyle=auto;gradientColor=none;" parent="35" vertex="1">
                    <mxGeometry x="2730" y="1400" width="70" height="80" as="geometry"/>
                </mxCell>
                <mxCell id="393" value="" style="endArrow=none;html=1;strokeColor=default;fontSize=12;fillColor=none;fontColor=#ffffff;rounded=0;sketch=0;gradientDirection=west;fillStyle=auto;gradientColor=none;" parent="35" edge="1">
                    <mxGeometry width="50" height="50" relative="1" as="geometry">
                        <mxPoint x="2685" y="1390" as="sourcePoint"/>
                        <mxPoint x="2765" y="1490" as="targetPoint"/>
                        <Array as="points">
                            <mxPoint x="2560" y="1390"/>
                            <mxPoint x="2560" y="1490"/>
                        </Array>
                    </mxGeometry>
                </mxCell>
                <mxCell id="395" value="" style="endArrow=none;html=1;strokeColor=default;entryX=0.5;entryY=1;entryDx=0;entryDy=0;entryPerimeter=0;fontSize=12;fillColor=none;fontColor=#ffffff;rounded=0;sketch=0;gradientDirection=west;fillStyle=auto;gradientColor=none;" parent="35" target="385" edge="1">
                    <mxGeometry width="50" height="50" relative="1" as="geometry">
                        <mxPoint x="2685" y="1490" as="sourcePoint"/>
                        <mxPoint x="2670" y="1430" as="targetPoint"/>
                    </mxGeometry>
                </mxCell>
                <mxCell id="396" value="" style="endArrow=none;html=1;strokeColor=default;entryX=0.5;entryY=1;entryDx=0;entryDy=0;fontSize=12;fillColor=none;fontColor=#ffffff;rounded=0;sketch=0;gradientDirection=west;fillStyle=auto;gradientColor=none;" parent="35" target="391" edge="1">
                    <mxGeometry width="50" height="50" relative="1" as="geometry">
                        <mxPoint x="2765" y="1490" as="sourcePoint"/>
                        <mxPoint x="2680" y="1440" as="targetPoint"/>
                    </mxGeometry>
                </mxCell>
                <mxCell id="397" value="" style="endArrow=none;html=1;strokeColor=default;exitX=0.5;exitY=1;exitDx=0;exitDy=0;exitPerimeter=0;fontSize=12;fillColor=none;fontColor=#ffffff;rounded=0;sketch=0;gradientDirection=west;fillStyle=auto;gradientColor=none;" parent="35" source="387" edge="1">
                    <mxGeometry width="50" height="50" relative="1" as="geometry">
                        <mxPoint x="2640" y="1500" as="sourcePoint"/>
                        <mxPoint x="2605" y="1490" as="targetPoint"/>
                    </mxGeometry>
                </mxCell>
                <mxCell id="462" value="" style="endArrow=classic;html=1;strokeColor=default;fontSize=12;fillColor=none;fontColor=#ffffff;sketch=0;gradientDirection=west;fillStyle=auto;gradientColor=none;rounded=0;" parent="35" edge="1">
                    <mxGeometry width="50" height="50" relative="1" as="geometry">
                        <mxPoint x="2850" y="1390" as="sourcePoint"/>
                        <mxPoint x="2850" y="1400" as="targetPoint"/>
                    </mxGeometry>
                </mxCell>
                <object label="普通用户" id="338">
                    <mxCell style="locked=1;" parent="0"/>
                </object>
                <mxCell id="466" value="&lt;font face=&quot;helvetica&quot;&gt;ID = 18&lt;br&gt;显示&lt;/font&gt;&lt;br style=&quot;font-family: &amp;#34;helvetica&amp;#34; ; font-size: 12px ; font-style: normal ; font-weight: 400 ; letter-spacing: normal ; text-align: center ; text-indent: 0px ; text-transform: none ; word-spacing: 0px&quot;&gt;&lt;font face=&quot;helvetica&quot;&gt;表;&lt;/font&gt;" style="shape=card;whiteSpace=wrap;html=1;sketch=0;fillStyle=auto;fillColor=none;gradientColor=none;gradientDirection=west;fontColor=#000000;labelBackgroundColor=none;" parent="338" vertex="1">
                    <mxGeometry x="2390" y="1890" width="80" height="70" as="geometry"/>
                </mxCell>
                <mxCell id="468" value="ID = 16&lt;br&gt;显示&lt;br&gt;数据;" style="shape=card;whiteSpace=wrap;html=1;sketch=0;fillStyle=auto;fillColor=none;gradientColor=none;gradientDirection=west;fontColor=#000000;labelBackgroundColor=none;" parent="338" vertex="1">
                    <mxGeometry x="2300" y="1800" width="80" height="70" as="geometry"/>
                </mxCell>
                <mxCell id="469" value="&lt;font face=&quot;helvetica&quot;&gt;ID = 15&lt;br&gt;显示&lt;br&gt;数据库;&lt;br&gt;&lt;/font&gt;" style="shape=card;whiteSpace=wrap;html=1;sketch=0;fillStyle=auto;fillColor=none;gradientColor=none;gradientDirection=west;fontColor=#000000;labelBackgroundColor=none;" parent="338" vertex="1">
                    <mxGeometry x="2210" y="1800" width="80" height="70" as="geometry"/>
                </mxCell>
                <mxCell id="470" value="&lt;span style=&quot;font-family: &amp;#34;helvetica&amp;#34; ; font-size: 12px ; font-style: normal ; font-weight: 400 ; letter-spacing: normal ; text-align: center ; text-indent: 0px ; text-transform: none ; word-spacing: 0px ; display: inline ; float: none&quot;&gt;ID = 17&lt;br&gt;选择&lt;/span&gt;&lt;br style=&quot;font-family: &amp;#34;helvetica&amp;#34; ; font-size: 12px ; font-style: normal ; font-weight: 400 ; letter-spacing: normal ; text-align: center ; text-indent: 0px ; text-transform: none ; word-spacing: 0px&quot;&gt;&lt;font face=&quot;helvetica&quot;&gt;表&lt;/font&gt;&lt;br style=&quot;font-family: &amp;#34;helvetica&amp;#34; ; font-size: 12px ; font-style: normal ; font-weight: 400 ; letter-spacing: normal ; text-align: center ; text-indent: 0px ; text-transform: none ; word-spacing: 0px&quot;&gt;&lt;span style=&quot;font-family: &amp;#34;helvetica&amp;#34; ; font-size: 12px ; font-style: normal ; font-weight: 400 ; letter-spacing: normal ; text-align: center ; text-indent: 0px ; text-transform: none ; word-spacing: 0px ; display: inline ; float: none&quot;&gt;@TBName;&lt;/span&gt;" style="shape=card;whiteSpace=wrap;html=1;sketch=0;fillStyle=auto;fillColor=none;gradientColor=none;gradientDirection=west;fontColor=#000000;labelBackgroundColor=none;" parent="338" vertex="1">
                    <mxGeometry x="2300" y="1890" width="80" height="70" as="geometry"/>
                </mxCell>
                <mxCell id="471" value="普通用户&lt;br&gt;OP = 2" style="rounded=0;whiteSpace=wrap;html=1;fillColor=none;fontColor=#000000;strokeColor=default;sketch=0;gradientDirection=west;fillStyle=auto;gradientColor=none;labelBackgroundColor=none;" parent="338" vertex="1">
                    <mxGeometry x="2300" y="1730" width="80" height="40" as="geometry"/>
                </mxCell>
                <mxCell id="472" value="&lt;font&gt;ID = 6&lt;br&gt;选择&lt;/font&gt;&lt;br&gt;&lt;span&gt;数据库&lt;/span&gt;&lt;br&gt;&lt;span&gt;@DBName;&lt;/span&gt;" style="shape=card;whiteSpace=wrap;html=1;sketch=0;fillStyle=auto;fillColor=none;gradientColor=none;gradientDirection=west;fontColor=#000000;labelBackgroundColor=none;" parent="338" vertex="1">
                    <mxGeometry x="2390" y="1800" width="80" height="70" as="geometry"/>
                </mxCell>
                <mxCell id="473" value="&lt;font face=&quot;helvetica&quot;&gt;ID = 14&lt;br&gt;显示&lt;br&gt;数据库&lt;br&gt;@DBName;&lt;br&gt;&lt;/font&gt;" style="shape=card;whiteSpace=wrap;html=1;sketch=0;fillStyle=auto;fillColor=none;gradientColor=none;gradientDirection=west;fontColor=#000000;labelBackgroundColor=none;" parent="338" vertex="1">
                    <mxGeometry x="2120" y="1800" width="80" height="70" as="geometry"/>
                </mxCell>
                <mxCell id="476" value="&lt;font face=&quot;helvetica&quot;&gt;ID = 19&lt;br&gt;插入&lt;/font&gt;&lt;br style=&quot;font-family: &amp;#34;helvetica&amp;#34; ; font-size: 12px ; font-style: normal ; font-weight: 400 ; letter-spacing: normal ; text-align: center ; text-indent: 0px ; text-transform: none ; word-spacing: 0px&quot;&gt;&lt;font face=&quot;helvetica&quot;&gt;表&lt;/font&gt;&lt;br style=&quot;font-family: &amp;#34;helvetica&amp;#34; ; font-size: 12px ; font-style: normal ; font-weight: 400 ; letter-spacing: normal ; text-align: center ; text-indent: 0px ; text-transform: none ; word-spacing: 0px&quot;&gt;&lt;span style=&quot;font-family: &amp;#34;helvetica&amp;#34; ; font-size: 12px ; font-style: normal ; font-weight: 400 ; letter-spacing: normal ; text-align: center ; text-indent: 0px ; text-transform: none ; word-spacing: 0px ; display: inline ; float: none&quot;&gt;@TBName&lt;br&gt;@vector&amp;lt;T&amp;gt;;&lt;/span&gt;" style="shape=card;whiteSpace=wrap;html=1;sketch=0;fillStyle=auto;fillColor=none;gradientColor=none;gradientDirection=west;fontColor=#000000;labelBackgroundColor=none;" parent="338" vertex="1">
                    <mxGeometry x="2200" y="1980" width="80" height="70" as="geometry"/>
                </mxCell>
                <mxCell id="477" value="&lt;font face=&quot;helvetica&quot;&gt;ID = 20&lt;br&gt;显示&lt;/font&gt;&lt;br style=&quot;font-family: &amp;#34;helvetica&amp;#34; ; font-size: 12px ; font-style: normal ; font-weight: 400 ; letter-spacing: normal ; text-align: center ; text-indent: 0px ; text-transform: none ; word-spacing: 0px&quot;&gt;&lt;font face=&quot;helvetica&quot;&gt;表&lt;/font&gt;&lt;br style=&quot;font-family: &amp;#34;helvetica&amp;#34; ; font-size: 12px ; font-style: normal ; font-weight: 400 ; letter-spacing: normal ; text-align: center ; text-indent: 0px ; text-transform: none ; word-spacing: 0px&quot;&gt;&lt;span style=&quot;font-family: &amp;#34;helvetica&amp;#34; ; font-size: 12px ; font-style: normal ; font-weight: 400 ; letter-spacing: normal ; text-align: center ; text-indent: 0px ; text-transform: none ; word-spacing: 0px ; display: inline ; float: none&quot;&gt;内容;&lt;/span&gt;" style="shape=card;whiteSpace=wrap;html=1;sketch=0;fillStyle=auto;fillColor=none;gradientColor=none;gradientDirection=west;fontColor=#000000;labelBackgroundColor=none;" parent="338" vertex="1">
                    <mxGeometry x="2290" y="1980" width="80" height="70" as="geometry"/>
                </mxCell>
                <mxCell id="478" value="&lt;font face=&quot;helvetica&quot;&gt;ID = 21&lt;br&gt;查询&lt;br&gt;表&lt;br&gt;@TBName&lt;br&gt;@TBIndex;&lt;br&gt;&lt;/font&gt;" style="shape=card;whiteSpace=wrap;html=1;sketch=0;fillStyle=auto;fillColor=none;gradientColor=none;gradientDirection=west;fontColor=#000000;labelBackgroundColor=none;" parent="338" vertex="1">
                    <mxGeometry x="2380" y="1980" width="80" height="70" as="geometry"/>
                </mxCell>
                <mxCell id="480" value="结束" style="ellipse;whiteSpace=wrap;html=1;sketch=0;fillColor=none;gradientDirection=west;fontColor=#000000;strokeColor=#000000;fillStyle=auto;gradientColor=none;labelBackgroundColor=none;" parent="338" vertex="1">
                    <mxGeometry x="2480" y="1900" width="80" height="50" as="geometry"/>
                </mxCell>
                <mxCell id="482" style="edgeStyle=none;html=1;exitX=0.5;exitY=1;exitDx=0;exitDy=0;exitPerimeter=0;entryX=0.5;entryY=0;entryDx=0;entryDy=0;fontColor=#000000;labelBackgroundColor=none;" parent="338" source="481" target="480" edge="1">
                    <mxGeometry relative="1" as="geometry">
                        <Array as="points"/>
                    </mxGeometry>
                </mxCell>
                <mxCell id="481" value="ID = 1&lt;br&gt;退出;" style="shape=card;whiteSpace=wrap;html=1;sketch=0;fillStyle=auto;fillColor=none;gradientColor=none;gradientDirection=west;fontColor=#000000;labelBackgroundColor=none;" parent="338" vertex="1">
                    <mxGeometry x="2480" y="1800" width="80" height="70" as="geometry"/>
                </mxCell>
                <mxCell id="483" value="" style="endArrow=none;html=1;fontColor=#000000;labelBackgroundColor=none;" parent="338" edge="1">
                    <mxGeometry width="50" height="50" relative="1" as="geometry">
                        <mxPoint x="2380" y="1880" as="sourcePoint"/>
                        <mxPoint x="2440" y="1880" as="targetPoint"/>
                    </mxGeometry>
                </mxCell>
                <mxCell id="484" value="" style="endArrow=none;html=1;exitX=0.5;exitY=1;exitDx=0;exitDy=0;exitPerimeter=0;fontColor=#000000;labelBackgroundColor=none;" parent="338" source="472" edge="1">
                    <mxGeometry width="50" height="50" relative="1" as="geometry">
                        <mxPoint x="2200" y="1910" as="sourcePoint"/>
                        <mxPoint x="2430" y="1880" as="targetPoint"/>
                    </mxGeometry>
                </mxCell>
                <mxCell id="485" value="" style="endArrow=classic;html=1;fontColor=#000000;labelBackgroundColor=none;" parent="338" edge="1">
                    <mxGeometry width="50" height="50" relative="1" as="geometry">
                        <mxPoint x="2380" y="1880" as="sourcePoint"/>
                        <mxPoint x="2370" y="1890" as="targetPoint"/>
                        <Array as="points">
                            <mxPoint x="2370" y="1880"/>
                        </Array>
                    </mxGeometry>
                </mxCell>
                <mxCell id="487" value="" style="endArrow=classic;html=1;fontColor=#000000;labelBackgroundColor=none;entryX=0.623;entryY=-0.011;entryDx=0;entryDy=0;entryPerimeter=0;" parent="338" target="466" edge="1">
                    <mxGeometry width="50" height="50" relative="1" as="geometry">
                        <mxPoint x="2440" y="1880" as="sourcePoint"/>
                        <mxPoint x="2440.3199999999997" y="1896.9899999999998" as="targetPoint"/>
                    </mxGeometry>
                </mxCell>
                <mxCell id="488" value="" style="endArrow=none;html=1;fontColor=#000000;labelBackgroundColor=none;" parent="338" edge="1">
                    <mxGeometry width="50" height="50" relative="1" as="geometry">
                        <mxPoint x="2160" y="1880" as="sourcePoint"/>
                        <mxPoint x="2340" y="1880" as="targetPoint"/>
                    </mxGeometry>
                </mxCell>
                <mxCell id="489" value="" style="endArrow=none;html=1;fontColor=#000000;labelBackgroundColor=none;" parent="338" edge="1">
                    <mxGeometry width="50" height="50" relative="1" as="geometry">
                        <mxPoint x="2160" y="1790" as="sourcePoint"/>
                        <mxPoint x="2520" y="1790" as="targetPoint"/>
                    </mxGeometry>
                </mxCell>
                <mxCell id="491" value="" style="endArrow=classic;html=1;fontColor=#000000;labelBackgroundColor=none;" parent="338" edge="1">
                    <mxGeometry width="50" height="50" relative="1" as="geometry">
                        <mxPoint x="2520" y="1790" as="sourcePoint"/>
                        <mxPoint x="2520" y="1800" as="targetPoint"/>
                    </mxGeometry>
                </mxCell>
                <mxCell id="492" value="" style="endArrow=classic;html=1;fontColor=#000000;labelBackgroundColor=none;" parent="338" edge="1">
                    <mxGeometry width="50" height="50" relative="1" as="geometry">
                        <mxPoint x="2430" y="1790" as="sourcePoint"/>
                        <mxPoint x="2430" y="1800" as="targetPoint"/>
                    </mxGeometry>
                </mxCell>
                <mxCell id="493" value="" style="endArrow=classic;html=1;fontColor=#000000;labelBackgroundColor=none;" parent="338" edge="1">
                    <mxGeometry width="50" height="50" relative="1" as="geometry">
                        <mxPoint x="2340" y="1790" as="sourcePoint"/>
                        <mxPoint x="2340" y="1800" as="targetPoint"/>
                    </mxGeometry>
                </mxCell>
                <mxCell id="494" value="" style="endArrow=classic;html=1;fontColor=#000000;labelBackgroundColor=none;" parent="338" edge="1">
                    <mxGeometry width="50" height="50" relative="1" as="geometry">
                        <mxPoint x="2250" y="1790" as="sourcePoint"/>
                        <mxPoint x="2250" y="1800" as="targetPoint"/>
                    </mxGeometry>
                </mxCell>
                <mxCell id="495" value="" style="endArrow=classic;html=1;fontColor=#000000;labelBackgroundColor=none;" parent="338" edge="1">
                    <mxGeometry width="50" height="50" relative="1" as="geometry">
                        <mxPoint x="2160" y="1790" as="sourcePoint"/>
                        <mxPoint x="2160" y="1800" as="targetPoint"/>
                    </mxGeometry>
                </mxCell>
                <mxCell id="496" value="" style="endArrow=none;html=1;exitX=0.5;exitY=1;exitDx=0;exitDy=0;fontColor=#000000;labelBackgroundColor=none;" parent="338" source="471" edge="1">
                    <mxGeometry width="50" height="50" relative="1" as="geometry">
                        <mxPoint x="2160" y="1910" as="sourcePoint"/>
                        <mxPoint x="2340" y="1790" as="targetPoint"/>
                    </mxGeometry>
                </mxCell>
                <mxCell id="497" value="" style="endArrow=none;html=1;entryX=0.5;entryY=1;entryDx=0;entryDy=0;entryPerimeter=0;fontColor=#000000;labelBackgroundColor=none;" parent="338" target="468" edge="1">
                    <mxGeometry width="50" height="50" relative="1" as="geometry">
                        <mxPoint x="2340" y="1880" as="sourcePoint"/>
                        <mxPoint x="2350" y="1910" as="targetPoint"/>
                    </mxGeometry>
                </mxCell>
                <mxCell id="498" value="" style="endArrow=none;html=1;entryX=0.5;entryY=1;entryDx=0;entryDy=0;entryPerimeter=0;fontColor=#000000;labelBackgroundColor=none;" parent="338" target="469" edge="1">
                    <mxGeometry width="50" height="50" relative="1" as="geometry">
                        <mxPoint x="2250" y="1880" as="sourcePoint"/>
                        <mxPoint x="2360" y="1920" as="targetPoint"/>
                    </mxGeometry>
                </mxCell>
                <mxCell id="499" value="" style="endArrow=none;html=1;exitX=0.5;exitY=1;exitDx=0;exitDy=0;exitPerimeter=0;fontColor=#000000;labelBackgroundColor=none;" parent="338" source="473" edge="1">
                    <mxGeometry width="50" height="50" relative="1" as="geometry">
                        <mxPoint x="2180" y="1930" as="sourcePoint"/>
                        <mxPoint x="2160" y="1880" as="targetPoint"/>
                    </mxGeometry>
                </mxCell>
                <mxCell id="501" value="" style="endArrow=classic;html=1;fontColor=#000000;labelBackgroundColor=none;" parent="338" edge="1">
                    <mxGeometry width="50" height="50" relative="1" as="geometry">
                        <mxPoint x="2250" y="1880" as="sourcePoint"/>
                        <mxPoint x="2340" y="1780" as="targetPoint"/>
                        <Array as="points">
                            <mxPoint x="2250" y="1890"/>
                            <mxPoint x="2110" y="1890"/>
                            <mxPoint x="2110" y="1780"/>
                        </Array>
                    </mxGeometry>
                </mxCell>
                <mxCell id="515" value="" style="endArrow=none;html=1;fontColor=#000000;labelBackgroundColor=none;" parent="338" edge="1">
                    <mxGeometry width="50" height="50" relative="1" as="geometry">
                        <mxPoint x="2240" y="1970" as="sourcePoint"/>
                        <mxPoint x="2430" y="1970" as="targetPoint"/>
                    </mxGeometry>
                </mxCell>
                <mxCell id="516" value="" style="endArrow=none;html=1;fontColor=#000000;labelBackgroundColor=none;entryX=0.5;entryY=1;entryDx=0;entryDy=0;entryPerimeter=0;" parent="338" target="470" edge="1">
                    <mxGeometry width="50" height="50" relative="1" as="geometry">
                        <mxPoint x="2340" y="1970" as="sourcePoint"/>
                        <mxPoint x="2260" y="1960" as="targetPoint"/>
                    </mxGeometry>
                </mxCell>
                <mxCell id="517" style="edgeStyle=none;html=1;fontColor=#000000;labelBackgroundColor=none;" parent="338" edge="1">
                    <mxGeometry relative="1" as="geometry">
                        <Array as="points"/>
                        <mxPoint x="2430" y="1970" as="sourcePoint"/>
                        <mxPoint x="2430" y="1980" as="targetPoint"/>
                    </mxGeometry>
                </mxCell>
                <mxCell id="518" style="edgeStyle=none;html=1;fontColor=#000000;labelBackgroundColor=none;" parent="338" edge="1">
                    <mxGeometry relative="1" as="geometry">
                        <Array as="points"/>
                        <mxPoint x="2340" y="1970" as="sourcePoint"/>
                        <mxPoint x="2340" y="1980" as="targetPoint"/>
                    </mxGeometry>
                </mxCell>
                <mxCell id="519" style="edgeStyle=none;html=1;fontColor=#000000;labelBackgroundColor=none;entryX=0.5;entryY=0;entryDx=0;entryDy=0;entryPerimeter=0;" parent="338" target="476" edge="1">
                    <mxGeometry relative="1" as="geometry">
                        <Array as="points"/>
                        <mxPoint x="2240" y="1970" as="sourcePoint"/>
                        <mxPoint x="2250" y="1980" as="targetPoint"/>
                    </mxGeometry>
                </mxCell>
                <mxCell id="522" value="" style="endArrow=none;html=1;fontColor=#000000;labelBackgroundColor=none;" parent="338" edge="1">
                    <mxGeometry width="50" height="50" relative="1" as="geometry">
                        <mxPoint x="2240" y="2060" as="sourcePoint"/>
                        <mxPoint x="2430" y="2060" as="targetPoint"/>
                    </mxGeometry>
                </mxCell>
                <mxCell id="525" value="" style="endArrow=none;html=1;fontColor=#000000;labelBackgroundColor=none;entryX=0.5;entryY=1;entryDx=0;entryDy=0;entryPerimeter=0;" parent="338" target="476" edge="1">
                    <mxGeometry width="50" height="50" relative="1" as="geometry">
                        <mxPoint x="2240" y="2060" as="sourcePoint"/>
                        <mxPoint x="2290" y="1990" as="targetPoint"/>
                    </mxGeometry>
                </mxCell>
                <mxCell id="526" value="" style="endArrow=none;html=1;fontColor=#000000;labelBackgroundColor=none;entryX=0.5;entryY=1;entryDx=0;entryDy=0;entryPerimeter=0;" parent="338" target="477" edge="1">
                    <mxGeometry width="50" height="50" relative="1" as="geometry">
                        <mxPoint x="2330" y="2060" as="sourcePoint"/>
                        <mxPoint x="2300" y="2000" as="targetPoint"/>
                    </mxGeometry>
                </mxCell>
                <mxCell id="527" value="" style="endArrow=none;html=1;fontColor=#000000;labelBackgroundColor=none;entryX=0.625;entryY=1;entryDx=0;entryDy=0;entryPerimeter=0;" parent="338" target="478" edge="1">
                    <mxGeometry width="50" height="50" relative="1" as="geometry">
                        <mxPoint x="2430" y="2060" as="sourcePoint"/>
                        <mxPoint x="2310" y="2010" as="targetPoint"/>
                    </mxGeometry>
                </mxCell>
                <mxCell id="528" value="" style="endArrow=classic;html=1;labelBackgroundColor=none;fontColor=#000000;" parent="338" edge="1">
                    <mxGeometry width="50" height="50" relative="1" as="geometry">
                        <mxPoint x="2410" y="2060" as="sourcePoint"/>
                        <mxPoint x="2340" y="1780" as="targetPoint"/>
                        <Array as="points">
                            <mxPoint x="2410" y="2070"/>
                            <mxPoint x="2570" y="2070"/>
                            <mxPoint x="2570" y="1780"/>
                        </Array>
                    </mxGeometry>
                </mxCell>
                <object label="管理员" id="285">
                    <mxCell style="locked=1;" parent="0"/>
                </object>
                <mxCell id="291" value="" style="endArrow=none;html=1;fillColor=none;strokeColor=default;fontSize=12;fontColor=#000000;sketch=0;gradientDirection=west;fillStyle=auto;gradientColor=none;labelBackgroundColor=none;" parent="285" edge="1">
                    <mxGeometry width="50" height="50" relative="1" as="geometry">
                        <mxPoint x="1730" y="1420" as="sourcePoint"/>
                        <mxPoint x="2040" y="1420" as="targetPoint"/>
                    </mxGeometry>
                </mxCell>
                <mxCell id="295" value="" style="endArrow=none;html=1;entryX=0.5;entryY=1;entryDx=0;entryDy=0;fillColor=none;strokeColor=default;fontSize=12;fontColor=#000000;sketch=0;gradientDirection=west;fillStyle=auto;gradientColor=none;labelBackgroundColor=none;" parent="285" target="297" edge="1">
                    <mxGeometry width="50" height="50" relative="1" as="geometry">
                        <mxPoint x="1890" y="1420" as="sourcePoint"/>
                        <mxPoint x="1850" y="1470" as="targetPoint"/>
                    </mxGeometry>
                </mxCell>
                <mxCell id="297" value="管理员用户&lt;br&gt;OP = 1" style="rounded=0;whiteSpace=wrap;html=1;fillColor=none;fontColor=#000000;strokeColor=default;sketch=0;gradientDirection=west;fillStyle=auto;gradientColor=none;labelBackgroundColor=none;" parent="285" vertex="1">
                    <mxGeometry x="1850" y="1360" width="80" height="40" as="geometry"/>
                </mxCell>
                <mxCell id="301" value="普通用户&lt;br&gt;OP&amp;nbsp; = 2" style="rounded=0;whiteSpace=wrap;html=1;gradientDirection=west;fillColor=none;fontColor=#000000;strokeColor=default;sketch=0;fillStyle=auto;gradientColor=none;labelBackgroundColor=none;" parent="285" vertex="1">
                    <mxGeometry x="1950" y="1510" width="80" height="70" as="geometry"/>
                </mxCell>
                <mxCell id="400" value="&lt;span&gt;ID = 5&lt;br&gt;删除&lt;/span&gt;&lt;br&gt;&lt;span&gt;数据库&lt;/span&gt;&lt;br&gt;&lt;span&gt;@DBName;&lt;/span&gt;" style="shape=card;whiteSpace=wrap;html=1;sketch=0;fillStyle=auto;fillColor=none;gradientColor=none;gradientDirection=west;fontColor=#000000;labelBackgroundColor=none;" parent="285" vertex="1">
                    <mxGeometry x="1750" y="1510" width="80" height="70" as="geometry"/>
                </mxCell>
                <mxCell id="401" value="&lt;span style=&quot;font-family: &amp;#34;helvetica&amp;#34; ; font-size: 12px ; font-style: normal ; font-weight: 400 ; letter-spacing: normal ; text-align: center ; text-indent: 0px ; text-transform: none ; word-spacing: 0px&quot;&gt;ID = 4&lt;br&gt;删除&lt;/span&gt;&lt;br style=&quot;font-family: &amp;#34;helvetica&amp;#34; ; font-size: 12px ; font-style: normal ; font-weight: 400 ; letter-spacing: normal ; text-align: center ; text-indent: 0px ; text-transform: none ; word-spacing: 0px&quot;&gt;&lt;span style=&quot;font-family: &amp;#34;helvetica&amp;#34; ; font-size: 12px ; font-style: normal ; font-weight: 400 ; letter-spacing: normal ; text-align: center ; text-indent: 0px ; text-transform: none ; word-spacing: 0px&quot;&gt;普通用户&lt;/span&gt;&lt;br style=&quot;font-family: &amp;#34;helvetica&amp;#34; ; font-size: 12px ; font-style: normal ; font-weight: 400 ; letter-spacing: normal ; text-align: center ; text-indent: 0px ; text-transform: none ; word-spacing: 0px&quot;&gt;&lt;span style=&quot;font-family: &amp;#34;helvetica&amp;#34; ; font-size: 12px ; font-style: normal ; font-weight: 400 ; letter-spacing: normal ; text-align: center ; text-indent: 0px ; text-transform: none ; word-spacing: 0px&quot;&gt;@ID;&lt;/span&gt;" style="shape=card;whiteSpace=wrap;html=1;sketch=0;fillStyle=auto;fillColor=none;gradientColor=none;gradientDirection=west;fontColor=#000000;strokeColor=default;labelBackgroundColor=none;" parent="285" vertex="1">
                    <mxGeometry x="2000" y="1430" width="80" height="70" as="geometry"/>
                </mxCell>
                <mxCell id="402" value="&lt;span&gt;ID = 2&lt;br&gt;创建&lt;/span&gt;&lt;br&gt;&lt;span&gt;数据库&lt;/span&gt;&lt;br&gt;&lt;span&gt;@DBName;&lt;/span&gt;" style="shape=card;whiteSpace=wrap;html=1;sketch=0;fillStyle=auto;fillColor=none;gradientColor=none;gradientDirection=west;fontColor=#000000;labelBackgroundColor=none;" parent="285" vertex="1">
                    <mxGeometry x="1800" y="1430" width="80" height="70" as="geometry"/>
                </mxCell>
                <mxCell id="403" value="&lt;span style=&quot;font-family: &amp;#34;helvetica&amp;#34; ; font-size: 12px ; font-style: normal ; font-weight: 400 ; letter-spacing: normal ; text-align: center ; text-indent: 0px ; text-transform: none ; word-spacing: 0px ; display: inline ; float: none&quot;&gt;ID = 3&lt;br&gt;创建&lt;/span&gt;&lt;br style=&quot;font-family: &amp;#34;helvetica&amp;#34; ; font-size: 12px ; font-style: normal ; font-weight: 400 ; letter-spacing: normal ; text-align: center ; text-indent: 0px ; text-transform: none ; word-spacing: 0px&quot;&gt;&lt;span style=&quot;font-family: &amp;#34;helvetica&amp;#34; ; font-size: 12px ; font-style: normal ; font-weight: 400 ; letter-spacing: normal ; text-align: center ; text-indent: 0px ; text-transform: none ; word-spacing: 0px ; display: inline ; float: none&quot;&gt;普通用户&lt;/span&gt;&lt;br style=&quot;font-family: &amp;#34;helvetica&amp;#34; ; font-size: 12px ; font-style: normal ; font-weight: 400 ; letter-spacing: normal ; text-align: center ; text-indent: 0px ; text-transform: none ; word-spacing: 0px&quot;&gt;&lt;span style=&quot;font-family: &amp;#34;helvetica&amp;#34; ; font-size: 12px ; font-style: normal ; font-weight: 400 ; letter-spacing: normal ; text-align: center ; text-indent: 0px ; text-transform: none ; word-spacing: 0px ; display: inline ; float: none&quot;&gt;@ID&lt;/span&gt;&lt;br style=&quot;font-family: &amp;#34;helvetica&amp;#34; ; font-size: 12px ; font-style: normal ; font-weight: 400 ; letter-spacing: normal ; text-align: center ; text-indent: 0px ; text-transform: none ; word-spacing: 0px&quot;&gt;&lt;span style=&quot;font-family: &amp;#34;helvetica&amp;#34; ; font-size: 12px ; font-style: normal ; font-weight: 400 ; letter-spacing: normal ; text-align: center ; text-indent: 0px ; text-transform: none ; word-spacing: 0px ; display: inline ; float: none&quot;&gt;@Passwd;&lt;/span&gt;" style="shape=card;whiteSpace=wrap;html=1;sketch=0;fillStyle=auto;fillColor=none;gradientColor=none;gradientDirection=west;fontColor=#000000;labelBackgroundColor=none;" parent="285" vertex="1">
                    <mxGeometry x="1900" y="1430" width="80" height="70" as="geometry"/>
                </mxCell>
                <mxCell id="429" style="edgeStyle=none;html=1;exitX=0.427;exitY=0.996;exitDx=0;exitDy=0;exitPerimeter=0;entryX=0.5;entryY=0;entryDx=0;entryDy=0;fontColor=#000000;labelBackgroundColor=none;" parent="285" source="414" target="428" edge="1">
                    <mxGeometry relative="1" as="geometry">
                        <mxPoint x="1660" y="1490" as="targetPoint"/>
                    </mxGeometry>
                </mxCell>
                <mxCell id="414" value="&lt;font&gt;ID = 1&lt;br&gt;退出;&lt;br&gt;&lt;/font&gt;" style="shape=card;whiteSpace=wrap;html=1;sketch=0;fillStyle=auto;fillColor=none;gradientColor=none;gradientDirection=west;fontColor=#000000;labelBackgroundColor=none;" parent="285" vertex="1">
                    <mxGeometry x="1690" y="1430" width="80" height="70" as="geometry"/>
                </mxCell>
                <mxCell id="422" value="" style="endArrow=classic;html=1;entryX=0.5;entryY=0;entryDx=0;entryDy=0;entryPerimeter=0;fontColor=#000000;labelBackgroundColor=none;" parent="285" target="414" edge="1">
                    <mxGeometry width="50" height="50" relative="1" as="geometry">
                        <mxPoint x="1730" y="1420" as="sourcePoint"/>
                        <mxPoint x="1740" y="1430" as="targetPoint"/>
                    </mxGeometry>
                </mxCell>
                <mxCell id="423" value="" style="endArrow=classic;html=1;entryX=0.5;entryY=0;entryDx=0;entryDy=0;entryPerimeter=0;fontColor=#000000;labelBackgroundColor=none;" parent="285" target="400" edge="1">
                    <mxGeometry width="50" height="50" relative="1" as="geometry">
                        <mxPoint x="1790" y="1420" as="sourcePoint"/>
                        <mxPoint x="2000" y="1470" as="targetPoint"/>
                    </mxGeometry>
                </mxCell>
                <mxCell id="424" value="" style="endArrow=classic;html=1;fontColor=#000000;labelBackgroundColor=none;" parent="285" edge="1">
                    <mxGeometry width="50" height="50" relative="1" as="geometry">
                        <mxPoint x="1840" y="1420" as="sourcePoint"/>
                        <mxPoint x="1840" y="1430" as="targetPoint"/>
                    </mxGeometry>
                </mxCell>
                <mxCell id="425" value="" style="endArrow=classic;html=1;fontColor=#000000;labelBackgroundColor=none;" parent="285" edge="1">
                    <mxGeometry width="50" height="50" relative="1" as="geometry">
                        <mxPoint x="1940" y="1420" as="sourcePoint"/>
                        <mxPoint x="1940" y="1430" as="targetPoint"/>
                    </mxGeometry>
                </mxCell>
                <mxCell id="426" value="" style="endArrow=classic;html=1;fontColor=#000000;labelBackgroundColor=none;" parent="285" edge="1">
                    <mxGeometry width="50" height="50" relative="1" as="geometry">
                        <mxPoint x="2040" y="1420" as="sourcePoint"/>
                        <mxPoint x="2040" y="1430" as="targetPoint"/>
                    </mxGeometry>
                </mxCell>
                <mxCell id="427" value="" style="endArrow=classic;html=1;fontColor=#000000;labelBackgroundColor=none;" parent="285" edge="1">
                    <mxGeometry width="50" height="50" relative="1" as="geometry">
                        <mxPoint x="1991" y="1420" as="sourcePoint"/>
                        <mxPoint x="1991" y="1510" as="targetPoint"/>
                    </mxGeometry>
                </mxCell>
                <mxCell id="428" value="结束" style="ellipse;whiteSpace=wrap;html=1;fontColor=#000000;labelBackgroundColor=none;fillColor=none;" parent="285" vertex="1">
                    <mxGeometry x="1690" y="1510" width="70" height="20" as="geometry"/>
                </mxCell>
                <mxCell id="434" value="&lt;font&gt;ID = 6&lt;br&gt;选择&lt;/font&gt;&lt;br&gt;&lt;span&gt;数据库&lt;/span&gt;&lt;br&gt;&lt;span&gt;@DBName;&lt;/span&gt;" style="shape=card;whiteSpace=wrap;html=1;sketch=0;fillStyle=auto;fillColor=none;gradientColor=none;gradientDirection=west;fontColor=#000000;labelBackgroundColor=none;" parent="285" vertex="1">
                    <mxGeometry x="1850" y="1510" width="80" height="70" as="geometry"/>
                </mxCell>
                <mxCell id="436" value="" style="endArrow=classic;html=1;entryX=0.5;entryY=0;entryDx=0;entryDy=0;entryPerimeter=0;fontColor=#000000;labelBackgroundColor=none;" parent="285" target="434" edge="1">
                    <mxGeometry width="50" height="50" relative="1" as="geometry">
                        <mxPoint x="1890" y="1420" as="sourcePoint"/>
                        <mxPoint x="1850" y="1450.0000000000002" as="targetPoint"/>
                    </mxGeometry>
                </mxCell>
                <mxCell id="437" value="&lt;font&gt;ID = 8&lt;br&gt;创建&lt;/font&gt;&lt;br&gt;&lt;font&gt;表&lt;/font&gt;&lt;br&gt;&lt;span&gt;@TBName;&lt;/span&gt;" style="shape=card;whiteSpace=wrap;html=1;sketch=0;fillStyle=auto;fillColor=none;gradientColor=none;gradientDirection=west;fontColor=#000000;labelBackgroundColor=none;" parent="285" vertex="1">
                    <mxGeometry x="1760" y="1600" width="80" height="70" as="geometry"/>
                </mxCell>
                <mxCell id="443" value="&lt;font&gt;ID = 10&lt;br&gt;删除&lt;/font&gt;&lt;br&gt;&lt;font&gt;表&lt;/font&gt;&lt;br&gt;&lt;span&gt;@TBName;&lt;/span&gt;" style="shape=card;whiteSpace=wrap;html=1;sketch=0;fillStyle=auto;fillColor=none;gradientColor=none;gradientDirection=west;fontColor=#000000;labelBackgroundColor=none;" parent="285" vertex="1">
                    <mxGeometry x="1940" y="1600" width="80" height="70" as="geometry"/>
                </mxCell>
                <mxCell id="444" value="" style="endArrow=none;html=1;fontColor=#000000;labelBackgroundColor=none;" parent="285" edge="1">
                    <mxGeometry width="50" height="50" relative="1" as="geometry">
                        <mxPoint x="1800" y="1680" as="sourcePoint"/>
                        <mxPoint x="1991" y="1680" as="targetPoint"/>
                    </mxGeometry>
                </mxCell>
                <mxCell id="445" value="" style="endArrow=none;html=1;fontColor=#000000;labelBackgroundColor=none;" parent="285" edge="1">
                    <mxGeometry width="50" height="50" relative="1" as="geometry">
                        <mxPoint x="1800" y="1590" as="sourcePoint"/>
                        <mxPoint x="1990" y="1590" as="targetPoint"/>
                    </mxGeometry>
                </mxCell>
                <mxCell id="446" value="" style="endArrow=none;html=1;entryX=0.5;entryY=1;entryDx=0;entryDy=0;entryPerimeter=0;fontColor=#000000;labelBackgroundColor=none;" parent="285" target="437" edge="1">
                    <mxGeometry width="50" height="50" relative="1" as="geometry">
                        <mxPoint x="1800" y="1680" as="sourcePoint"/>
                        <mxPoint x="2120" y="1640" as="targetPoint"/>
                    </mxGeometry>
                </mxCell>
                <mxCell id="447" value="" style="endArrow=none;html=1;fontColor=#000000;labelBackgroundColor=none;" parent="285" edge="1">
                    <mxGeometry width="50" height="50" relative="1" as="geometry">
                        <mxPoint x="1991" y="1680" as="sourcePoint"/>
                        <mxPoint x="1991" y="1670" as="targetPoint"/>
                        <Array as="points"/>
                    </mxGeometry>
                </mxCell>
                <mxCell id="448" value="" style="endArrow=none;html=1;fontColor=#000000;labelBackgroundColor=none;" parent="285" edge="1">
                    <mxGeometry width="50" height="50" relative="1" as="geometry">
                        <mxPoint x="1890" y="1680" as="sourcePoint"/>
                        <mxPoint x="2130" y="1560" as="targetPoint"/>
                        <Array as="points">
                            <mxPoint x="1890" y="1690"/>
                            <mxPoint x="2130" y="1690"/>
                        </Array>
                    </mxGeometry>
                </mxCell>
                <mxCell id="449" value="" style="endArrow=none;html=1;exitX=0.5;exitY=1;exitDx=0;exitDy=0;exitPerimeter=0;fontColor=#000000;labelBackgroundColor=none;" parent="285" source="434" edge="1">
                    <mxGeometry width="50" height="50" relative="1" as="geometry">
                        <mxPoint x="2100" y="1720" as="sourcePoint"/>
                        <mxPoint x="1890" y="1590" as="targetPoint"/>
                    </mxGeometry>
                </mxCell>
                <mxCell id="450" value="" style="endArrow=classic;html=1;entryX=0.618;entryY=-0.007;entryDx=0;entryDy=0;entryPerimeter=0;fontColor=#000000;labelBackgroundColor=none;" parent="285" target="443" edge="1">
                    <mxGeometry width="50" height="50" relative="1" as="geometry">
                        <mxPoint x="1989" y="1590" as="sourcePoint"/>
                        <mxPoint x="1940" y="1640" as="targetPoint"/>
                    </mxGeometry>
                </mxCell>
                <mxCell id="451" value="" style="endArrow=classic;html=1;entryX=0.5;entryY=0;entryDx=0;entryDy=0;entryPerimeter=0;fontColor=#000000;labelBackgroundColor=none;" parent="285" target="437" edge="1">
                    <mxGeometry width="50" height="50" relative="1" as="geometry">
                        <mxPoint x="1800" y="1590" as="sourcePoint"/>
                        <mxPoint x="2110" y="1630" as="targetPoint"/>
                    </mxGeometry>
                </mxCell>
                <mxCell id="454" value="&lt;font&gt;ID = 7&lt;br&gt;重命名&lt;/font&gt;&lt;br&gt;&lt;span&gt;数据库&lt;/span&gt;&lt;br&gt;&lt;span&gt;@OldName;&lt;br&gt;@NewName;&lt;br&gt;&lt;/span&gt;" style="shape=card;whiteSpace=wrap;html=1;sketch=0;fillStyle=auto;fillColor=none;gradientColor=none;gradientDirection=west;fontColor=#000000;labelBackgroundColor=none;" parent="285" vertex="1">
                    <mxGeometry x="2040" y="1510" width="80" height="70" as="geometry"/>
                </mxCell>
                <mxCell id="455" value="" style="endArrow=none;html=1;entryX=0.5;entryY=1;entryDx=0;entryDy=0;entryPerimeter=0;fontColor=#000000;labelBackgroundColor=none;" parent="285" target="454" edge="1">
                    <mxGeometry width="50" height="50" relative="1" as="geometry">
                        <mxPoint x="2080" y="1590" as="sourcePoint"/>
                        <mxPoint x="1979.9999999999998" y="1660" as="targetPoint"/>
                        <Array as="points"/>
                    </mxGeometry>
                </mxCell>
                <mxCell id="456" value="" style="endArrow=classic;html=1;fontColor=#000000;labelBackgroundColor=none;" parent="285" edge="1">
                    <mxGeometry width="50" height="50" relative="1" as="geometry">
                        <mxPoint x="2040" y="1420" as="sourcePoint"/>
                        <mxPoint x="2090" y="1510" as="targetPoint"/>
                        <Array as="points">
                            <mxPoint x="2090" y="1420"/>
                        </Array>
                    </mxGeometry>
                </mxCell>
                <mxCell id="457" value="&lt;font&gt;ID = 9&lt;br&gt;重命名&lt;/font&gt;&lt;br&gt;&lt;font&gt;表&lt;/font&gt;&lt;br&gt;&lt;span&gt;@OldName&lt;br&gt;@NewName;&lt;/span&gt;" style="shape=card;whiteSpace=wrap;html=1;sketch=0;fillStyle=auto;fillColor=none;gradientColor=none;gradientDirection=west;fontColor=#000000;labelBackgroundColor=none;" parent="285" vertex="1">
                    <mxGeometry x="1850" y="1600" width="80" height="70" as="geometry"/>
                </mxCell>
                <mxCell id="504" value="" style="endArrow=classic;html=1;exitX=0.5;exitY=1;exitDx=0;exitDy=0;exitPerimeter=0;fontColor=#000000;labelBackgroundColor=none;" parent="285" source="400" edge="1">
                    <mxGeometry width="50" height="50" relative="1" as="geometry">
                        <mxPoint x="1980" y="1590" as="sourcePoint"/>
                        <mxPoint x="1890" y="1410" as="targetPoint"/>
                        <Array as="points">
                            <mxPoint x="1790" y="1590"/>
                            <mxPoint x="1680" y="1590"/>
                            <mxPoint x="1680" y="1410"/>
                        </Array>
                    </mxGeometry>
                </mxCell>
                <mxCell id="505" value="" style="endArrow=none;html=1;fontColor=#000000;labelBackgroundColor=none;" parent="285" edge="1">
                    <mxGeometry width="50" height="50" relative="1" as="geometry">
                        <mxPoint x="2000" y="1590" as="sourcePoint"/>
                        <mxPoint x="2130" y="1590" as="targetPoint"/>
                    </mxGeometry>
                </mxCell>
                <mxCell id="509" value="" style="endArrow=none;html=1;fontColor=#000000;labelBackgroundColor=none;" parent="285" edge="1">
                    <mxGeometry width="50" height="50" relative="1" as="geometry">
                        <mxPoint x="2000" y="1590" as="sourcePoint"/>
                        <mxPoint x="2000" y="1580" as="targetPoint"/>
                    </mxGeometry>
                </mxCell>
                <mxCell id="511" value="" style="endArrow=classic;html=1;fontColor=#000000;labelBackgroundColor=none;" parent="285" edge="1">
                    <mxGeometry width="50" height="50" relative="1" as="geometry">
                        <mxPoint x="1890" y="1590" as="sourcePoint"/>
                        <mxPoint x="1890" y="1600" as="targetPoint"/>
                    </mxGeometry>
                </mxCell>
                <mxCell id="512" value="" style="endArrow=classic;html=1;fontColor=#000000;labelBackgroundColor=none;" parent="285" edge="1">
                    <mxGeometry width="50" height="50" relative="1" as="geometry">
                        <mxPoint x="2130" y="1560" as="sourcePoint"/>
                        <mxPoint x="1890" y="1410" as="targetPoint"/>
                        <Array as="points">
                            <mxPoint x="2130" y="1410"/>
                        </Array>
                    </mxGeometry>
                </mxCell>
            </root>
        </mxGraphModel>
    </diagram>
</mxfile>